<?xml version="1.0" standalone="no"?>
<!DOCTYPE svg PUBLIC "-//W3C//DTD SVG 20010904//EN"
 "http://www.w3.org/TR/2001/REC-SVG-20010904/DTD/svg10.dtd">
<svg version="1.0" xmlns="http://www.w3.org/2000/svg"
 width="360.000000pt" height="360.000000pt" viewBox="0 0 360.000000 360.000000"
 preserveAspectRatio="xMidYMid meet">
<metadata>
Created by potrace 1.16, written by Peter Selinger 2001-2019
</metadata>
<g transform="translate(0.000000,360.000000) scale(0.100000,-0.100000)"
fill="#000000" stroke="none">
<path d="M1305 2805 c-42 -15 -105 -75 -105 -99 0 -9 21 -21 53 -30 99 -29
140 -92 156 -239 22 -191 7 -463 -29 -544 -21 -48 -55 -69 -95 -59 -94 24
-312 346 -470 695 -69 154 -91 185 -142 207 -40 17 -556 20 -615 4 -44 -13
-62 -40 -55 -84 11 -69 267 -588 402 -816 461 -778 839 -1055 1440 -1055 229
0 245 12 264 193 14 131 40 207 86 250 70 65 122 37 306 -162 161 -175 223
-228 299 -258 52 -22 71 -23 380 -26 351 -3 354 -2 394 51 28 37 27 108 -2
163 -45 87 -154 216 -344 404 -224 223 -236 241 -203 325 9 26 98 155 197 287
220 297 277 381 328 492 51 107 61 172 31 203 -36 38 -81 43 -419 43 -378 0
-376 0 -416 -84 -14 -29 -34 -77 -46 -107 -33 -84 -144 -299 -205 -398 -68
-110 -131 -194 -199 -266 -45 -48 -57 -55 -89 -55 -46 0 -78 30 -95 88 -8 27
-12 153 -12 393 -1 392 -6 431 -63 473 -27 20 -42 21 -360 23 -268 2 -340 0
-372 -12z"/>
</g>
</svg>
